<svg width="56" height="53" viewBox="0 0 56 53" fill="none" xmlns="http://www.w3.org/2000/svg">
<path d="M55.0764 50.8946H47.2114C48.699 49.9666 49.6912 48.3464 49.6912 46.4986C49.6912 43.6127 47.2727 41.2674 44.2971 41.2674C41.313 41.2674 38.9031 43.6128 38.9031 46.4986C38.9031 48.3464 39.886 49.9662 41.374 50.8946H17.7614C19.249 49.9666 20.2412 48.3464 20.2412 46.4986C20.2412 43.6127 17.8227 41.2674 14.8471 41.2674C11.863 41.2674 9.45304 43.6128 9.45304 46.4986C9.45304 48.3464 10.436 49.9662 11.924 50.8946H1.41378C0.935124 50.8946 0.552612 51.2741 0.552612 51.7297C0.552612 52.1854 0.935535 52.5649 1.41378 52.5649H55.0765C55.5552 52.5649 55.9377 52.1854 55.9377 51.7297C55.9381 51.2741 55.5552 50.8946 55.0765 50.8946H55.0764ZM44.2883 44.3893C45.4891 44.3893 46.4633 45.3344 46.4633 46.4986C46.4633 47.6631 45.4887 48.6078 44.2883 48.6078C43.0875 48.6078 42.1133 47.6627 42.1133 46.4986C42.1045 45.334 43.0879 44.3893 44.2883 44.3893V44.3893ZM14.8381 44.3893C16.0389 44.3893 17.013 45.3344 17.013 46.4986C17.013 47.6631 16.0385 48.6078 14.8381 48.6078C13.6372 48.6078 12.6631 47.6627 12.6631 46.4986C12.6631 45.334 13.6372 44.3893 14.8381 44.3893Z" fill="#596B86"/>
<path d="M2.797 15.1451L10.1313 15.2294C11.393 15.2461 12.428 14.2676 12.4368 13.044C12.454 11.8203 11.4362 10.8167 10.1833 10.8081H10.1484C10.1573 10.7658 10.1573 10.7405 10.1573 10.6986C10.1745 9.07019 8.8263 7.73707 7.14681 7.71181C5.51101 7.6951 4.16272 8.92689 4.07546 10.4962C3.71017 10.2938 3.30121 10.1839 2.84858 10.1757C1.43949 10.1501 0.273933 11.2556 0.256296 12.6307C0.239073 14.0062 1.37858 15.1284 2.7969 15.1451L2.797 15.1451Z" fill="#596B86"/>
<path d="M43.3059 2.5649C43.7845 2.5649 44.1671 2.18539 44.1671 1.72975V0.835155C44.1671 0.370959 43.7841 0 43.3059 0C42.8272 0 42.4447 0.379511 42.4447 0.835155V1.7212C42.4359 2.18501 42.8272 2.56491 43.3059 2.56491V2.5649Z" fill="#596B86"/>
<path d="M39.9038 2.83489C40.0604 3.10486 40.3564 3.25675 40.652 3.25675C40.7998 3.25675 40.948 3.22295 41.087 3.1472C41.5047 2.91957 41.6437 2.40489 41.4002 1.99974L40.9392 1.22323C40.7044 0.818087 40.1737 0.683293 39.756 0.919468C39.3382 1.1471 39.1992 1.66178 39.4427 2.06693L39.9038 2.83489Z" fill="#596B86"/>
<path d="M37.4849 4.58137L38.2768 5.02032C38.4161 5.09607 38.5639 5.12987 38.7117 5.12987C39.0077 5.12987 39.3033 4.97799 39.46 4.70801C39.6947 4.30287 39.5557 3.79672 39.1467 3.56055L38.3549 3.11345C37.9371 2.87727 37.4152 3.02061 37.1717 3.41721C36.9281 3.83052 37.0675 4.34521 37.4849 4.58138L37.4849 4.58137Z" fill="#596B86"/>
<path d="M37.0758 7.71181H37.9894C38.4681 7.71181 38.8506 7.3323 38.8506 6.87666C38.8506 6.41246 38.4677 6.0415 37.9894 6.0415H37.0758C36.5971 6.0415 36.2146 6.42101 36.2146 6.87666C36.2146 7.33192 36.5975 7.71181 37.0758 7.71181Z" fill="#596B86"/>
<path d="M45.524 3.13867C45.6634 3.21441 45.8111 3.24821 45.9589 3.24821C46.2549 3.24821 46.5505 3.09633 46.7072 2.82636L47.1682 2.0584C47.4029 1.65325 47.2639 1.1471 46.855 0.910934C46.4372 0.674759 45.9153 0.818096 45.6718 1.2147L45.2107 1.98266C44.9668 2.39596 45.1062 2.9025 45.524 3.13868L45.524 3.13867Z" fill="#596B86"/>
<path d="M44.0104 8.18416C43.6275 7.97324 43.1925 7.86369 42.7227 7.86369C41.235 7.86369 40.0342 9.03641 40.0342 10.471C40.0342 11.9055 41.2434 13.0782 42.7227 13.0782H50.4139C51.7364 13.0782 52.8063 12.0403 52.8063 10.7581C52.8063 9.47545 51.7276 8.43787 50.4139 8.43787H50.379C50.3879 8.39553 50.3879 8.36212 50.3879 8.31978C50.3879 6.60709 48.9523 5.22305 47.1947 5.22305C45.4808 5.23121 44.0801 6.53867 44.0103 8.18414L44.0104 8.18416Z" fill="#596B86"/>
<path d="M39.8781 6.86777C39.8781 6.97731 39.8953 7.0787 39.9041 7.18824C40.6696 6.57217 41.6441 6.18407 42.7143 6.18407H42.784C43.2711 5.23899 44.0718 4.47954 45.0547 4.02389C44.5412 3.72013 43.9497 3.543 43.3059 3.543C41.4178 3.54339 39.8781 5.03692 39.8781 6.86775L39.8781 6.86777Z" fill="#596B86"/>
<path d="M3.42346 35.8082C3.42346 35.1416 3.53641 34.4918 3.76272 33.8846L5.26799 29.6828C4.86785 29.4466 4.39801 29.3114 3.90217 29.3114C2.43176 29.3114 1.23975 30.4674 1.23975 31.8934V39.2257C1.23975 40.4913 2.18823 41.5459 3.43234 41.7568L3.43194 35.8082L3.42346 35.8082Z" fill="#596B86"/>
<path d="M8.24382 26.4686L5.39036 34.4505C5.23375 34.8894 5.15564 35.3532 5.15564 35.8088V41.9851H9.46228C10.7673 40.5171 12.6986 39.5887 14.8476 39.5887C16.9965 39.5887 18.928 40.5253 20.233 41.9851H38.9125C40.2175 40.5171 42.1488 39.5887 44.2978 39.5887C46.4469 39.5887 48.3782 40.5253 49.6832 41.9851H52.6761V39.4707C52.6761 39.1502 52.6413 38.8465 52.5804 38.5427C52.1626 36.5178 50.3878 34.9566 48.1956 34.8051L41.8098 34.3661L36.7289 25.7597C35.9634 24.4771 34.5539 23.6757 33.0226 23.6757H12.281C10.4538 23.6842 8.84432 24.7979 8.24395 26.4686L8.24382 26.4686ZM23.5303 27.6246C23.5303 27.0932 23.9741 26.6543 24.5309 26.6543H33.0048C33.4398 26.6543 33.8399 26.8819 34.0575 27.2447L37.7725 33.5391C38.1554 34.189 37.6767 34.9904 36.9025 34.9904H24.5312C23.9832 34.9904 23.5306 34.56 23.5306 34.0201L23.5303 27.6246ZM20.8423 27.6246V34.0285C20.8423 34.5599 20.3985 34.9989 19.8417 34.9989H9.84498C9.15765 34.9989 8.67901 34.3408 8.90531 33.7163L11.1412 27.4471C11.3066 26.9748 11.7676 26.6625 12.2807 26.6625H19.8413C20.3984 26.6543 20.8423 27.0847 20.8423 27.6246H20.8423Z" fill="#596B86"/>
<path d="M51.4137 46.4992C51.4137 47.0392 51.344 47.5624 51.2222 48.0685H53.3278C53.9106 48.0685 54.3893 47.6129 54.3893 47.0391V44.6937C54.3893 44.1285 53.9195 43.6642 53.3278 43.6642H50.7788C51.1785 44.5332 51.4137 45.4864 51.4137 46.4991L51.4137 46.4992Z" fill="#596B86"/>
<path d="M4.47652 43.6642C3.89373 43.6642 3.41504 44.1198 3.41504 44.6936V47.039C3.41504 47.6042 3.88487 48.0684 4.47652 48.0684H7.9044C7.78264 47.5623 7.71294 47.039 7.71294 46.4992C7.71294 45.4864 7.93924 44.5332 8.3482 43.6643L4.47652 43.6642Z" fill="#596B86"/>
<path d="M21.337 43.6642C21.7372 44.5331 21.9723 45.4867 21.9723 46.4991C21.9723 47.039 21.9026 47.5622 21.7808 48.0683H37.3627C37.2409 47.5622 37.1712 47.0389 37.1712 46.4991C37.1712 45.4863 37.3975 44.5331 37.8065 43.6642H21.337Z" fill="#596B86"/>
</svg>
